<svg width="142" height="160" viewBox="0 0 142 160" fill="none" xmlns="http://www.w3.org/2000/svg">
<circle cx="71" cy="80" r="71" fill="black"/>
<g filter="url(#filter0_d_17_5)">
<path d="M57.072 128C56.0907 128 55.2373 127.637 54.512 126.912L41.712 114.112C41.0293 113.429 40.688 112.576 40.688 111.552V59.072C40.688 58.0907 41.0293 57.2373 41.712 56.512L54.512 43.712C55.2373 43.0293 56.0907 42.688 57.072 42.688H95.792C96.8587 42.688 97.392 43.2213 97.392 44.288V66.688C97.392 67.7547 96.8587 68.288 95.792 68.288H69.488C68.8907 68.288 68.3787 68.5013 67.952 68.928C67.5253 69.312 67.312 69.8027 67.312 70.4V100.288C67.312 100.843 67.5253 101.333 67.952 101.76C68.3787 102.187 68.8907 102.4 69.488 102.4H78.512V92.928L73.2 92.8C72.1333 92.8 71.6 92.2667 71.6 91.2V75.2C71.6 74.1333 72.1333 73.6 73.2 73.6H100.4C101.467 73.6 102 74.1333 102 75.2V111.552C102 112.576 101.637 113.429 100.912 114.112L88.112 126.912C87.4293 127.637 86.576 128 85.552 128H57.072Z" fill="#FBFBFB"/>
</g>
<defs>
<filter id="filter0_d_17_5" x="36.688" y="42.688" width="69.312" height="93.312" filterUnits="userSpaceOnUse" color-interpolation-filters="sRGB">
<feFlood flood-opacity="0" result="BackgroundImageFix"/>
<feColorMatrix in="SourceAlpha" type="matrix" values="0 0 0 0 0 0 0 0 0 0 0 0 0 0 0 0 0 0 127 0" result="hardAlpha"/>
<feOffset dy="4"/>
<feGaussianBlur stdDeviation="2"/>
<feComposite in2="hardAlpha" operator="out"/>
<feColorMatrix type="matrix" values="0 0 0 0 0.984314 0 0 0 0 0.984314 0 0 0 0 0.984314 0 0 0 0.25 0"/>
<feBlend mode="normal" in2="BackgroundImageFix" result="effect1_dropShadow_17_5"/>
<feBlend mode="normal" in="SourceGraphic" in2="effect1_dropShadow_17_5" result="shape"/>
</filter>
</defs>
</svg>
